<svg width="4" height="4" viewBox="0 0 4 4" fill="none" xmlns="http://www.w3.org/2000/svg">
<path d="M0 1.99486C0 1.44644 0.196891 0.976864 0.590674 0.586118C0.984456 0.195373 1.45769 0 2.01036 0C2.55613 0 3.02418 0.195373 3.41451 0.586118C3.80484 0.976864 4 1.44644 4 1.99486C4 2.54327 3.80484 3.01457 3.41451 3.40874C3.02418 3.80291 2.55613 4 2.01036 4C1.46459 4 0.993092 3.80291 0.595855 3.40874C0.198618 3.01457 0 2.54327 0 1.99486ZM0.974093 1.99486C0.974093 2.28278 1.07427 2.52614 1.27461 2.72494C1.48187 2.93059 1.72712 3.03342 2.01036 3.03342C2.29361 3.03342 2.53886 2.93059 2.74611 2.72494C2.95337 2.51928 3.05699 2.27592 3.05699 1.99486C3.05699 1.7138 2.95337 1.47215 2.74611 1.26992C2.53886 1.06769 2.29361 0.966581 2.01036 0.966581C1.72021 0.966581 1.47496 1.06598 1.27461 1.26478C1.07427 1.46358 0.974093 1.70694 0.974093 1.99486Z" fill="white"/>
</svg>
